<?xml version="1.0" encoding="utf-8"?>
<!-- Generator: Adobe Illustrator 28.3.0, SVG Export Plug-In . SVG Version: 6.00 Build 0)  -->
<svg version="1.1" id="Calque_1" xmlns="http://www.w3.org/2000/svg" xmlns:xlink="http://www.w3.org/1999/xlink" x="0px" y="0px"
	 viewBox="0 0 1838.6 344.3" style="enable-background:new 0 0 1838.6 344.3;" xml:space="preserve">
<style type="text/css">
	.st0{fill:#CB4F78;}
</style>
<g>
	<path class="st0" d="M233.5,241.1c-8.4,7.2-17.7,12.7-28.1,16.6c-10.4,3.8-21.1,5.8-32.3,5.8c-8.5,0-16.8-1.1-24.7-3.3
		s-15.3-5.4-22.2-9.4c-6.9-4.1-13.2-8.9-18.9-14.6c-5.7-5.7-10.6-12-14.6-18.9c-4.1-6.9-7.2-14.3-9.4-22.2
		c-2.2-7.9-3.3-16.1-3.3-24.7c0-8.5,1.1-16.8,3.3-24.7c2.2-8,5.4-15.4,9.4-22.3c4.1-6.9,8.9-13.2,14.6-18.9
		c5.7-5.7,12-10.6,18.9-14.6c6.9-4.1,14.3-7.2,22.2-9.4c7.9-2.2,16.1-3.3,24.7-3.3c11.1,0,21.9,1.9,32.3,5.7
		c10.4,3.8,19.7,9.4,28.1,16.6l-19.1,31.4c-5.3-5.7-11.5-10.1-18.7-13.1c-7.2-3.1-14.7-4.6-22.6-4.6c-8,0-15.4,1.5-22.3,4.5
		c-6.9,3-13,7.1-18.2,12.2c-5.2,5.1-9.3,11.2-12.3,18.2c-3,7-4.5,14.4-4.5,22.3c0,7.9,1.5,15.3,4.5,22.2c3,6.9,7.1,13,12.3,18.1
		c5.2,5.2,11.3,9.3,18.2,12.3c6.9,3,14.4,4.5,22.3,4.5c7.9,0,15.4-1.5,22.6-4.6c7.2-3.1,13.4-7.4,18.7-13.1L233.5,241.1z"/>
	<path class="st0" d="M296.8,259.5h-36v-180h72.1c6.6,0,13,0.9,19.1,2.6c6.1,1.7,11.8,4.1,17.1,7.3c5.3,3.1,10.2,6.9,14.6,11.3
		c4.4,4.4,8.2,9.3,11.3,14.6c3.1,5.4,5.6,11.1,7.3,17.2c1.7,6.1,2.6,12.5,2.6,19.1c0,6.2-0.8,12.2-2.3,18.1
		c-1.6,5.9-3.8,11.4-6.7,16.7c-2.9,5.3-6.4,10.1-10.6,14.6c-4.2,4.4-8.9,8.3-14.1,11.5l20,47.1h-38.3l-15.7-36.3l-40.3,0.3V259.5z
		 M296.8,115.5v72.1h36c4.9,0,9.6-0.9,13.9-2.8s8.2-4.5,11.4-7.7c3.3-3.3,5.8-7.1,7.7-11.5c1.9-4.4,2.8-9.1,2.8-14s-0.9-9.6-2.8-14
		c-1.9-4.4-4.5-8.2-7.7-11.5c-3.3-3.3-7.1-5.8-11.4-7.7c-4.4-1.9-9-2.8-13.9-2.8H296.8z"/>
	<path class="st0" d="M558.2,259.5H434.8v-180h123.4v36h-87.4v36h59.1v36h-59.1v35.9h87.4V259.5z"/>
	<path class="st0" d="M731.8,259.5h-36v-36h-72.1v36h-35.9v-108c0-10,1.9-19.3,5.6-28.1c3.8-8.7,8.9-16.4,15.4-22.9
		c6.5-6.5,14.1-11.7,22.8-15.4c8.7-3.8,18.1-5.6,28.1-5.6c10,0,19.3,1.9,28.1,5.6c8.7,3.8,16.4,8.9,22.9,15.4
		c6.5,6.5,11.7,14.2,15.4,22.9c3.8,8.7,5.6,18.1,5.6,28.1V259.5z M695.8,187.6v-36c0-4.9-0.9-9.6-2.8-14c-1.9-4.4-4.5-8.2-7.7-11.5
		c-3.3-3.3-7.1-5.8-11.5-7.7c-4.4-1.9-9.1-2.8-14-2.8c-4.9,0-9.6,0.9-14,2.8c-4.4,1.9-8.2,4.5-11.5,7.7c-3.3,3.3-5.8,7.1-7.7,11.5
		c-1.9,4.4-2.8,9.1-2.8,14v36H695.8z"/>
	<path class="st0" d="M913.5,205.5c0,7.4-1.4,14.4-4.3,21c-2.8,6.5-6.7,12.2-11.6,17.1s-10.6,8.8-17.1,11.6
		c-6.5,2.8-13.5,4.3-21,4.3h-90v-180h90c7.4,0,14.4,1.4,21,4.3c6.5,2.8,12.2,6.7,17.1,11.6c4.9,4.9,8.8,10.6,11.6,17.1
		c2.8,6.5,4.3,13.5,4.3,21c0,3.3-0.5,6.8-1.4,10.3c-0.9,3.5-2.2,6.9-3.9,10.2c-1.7,3.3-3.7,6.2-6,8.9c-2.3,2.7-4.9,4.9-7.8,6.7
		c2.9,1.6,5.6,3.7,7.9,6.5c2.3,2.7,4.4,5.7,6,9c1.7,3.3,3,6.7,3.8,10.2C913,198.7,913.5,202.2,913.5,205.5z M805.5,151.6h54
		c2.5,0,4.9-0.5,7-1.4c2.2-0.9,4.1-2.2,5.7-3.8c1.6-1.6,2.9-3.6,3.8-5.8c0.9-2.2,1.4-4.6,1.4-7.1c0-2.5-0.5-4.9-1.4-7
		c-0.9-2.2-2.2-4.1-3.8-5.7c-1.6-1.6-3.5-2.9-5.7-3.8c-2.2-0.9-4.5-1.4-7-1.4h-54V151.6z M805.5,223.5h54c2.5,0,4.9-0.5,7-1.4
		c2.2-0.9,4.1-2.2,5.7-3.8c1.6-1.6,2.9-3.5,3.8-5.7c0.9-2.2,1.4-4.5,1.4-7c0-2.5-0.5-4.9-1.4-7c-0.9-2.2-2.2-4.1-3.8-5.7
		c-1.6-1.6-3.5-2.9-5.7-3.8c-2.2-0.9-4.5-1.4-7-1.4h-54V223.5z"/>
	<path class="st0" d="M1028.1,259.5h-35.9v-56.4c-8-2-15.3-5.2-21.9-9.7c-6.7-4.4-12.4-9.7-17.1-15.9c-4.8-6.1-8.5-13-11.1-20.5
		c-2.6-7.5-4-15.4-4-23.7v-54h36v54c0,4.9,0.9,9.6,2.8,14c1.9,4.4,4.5,8.2,7.7,11.5c3.3,3.3,7.1,5.8,11.5,7.7
		c4.4,1.9,9.1,2.8,14,2.8c4.9,0,9.6-0.9,14-2.8c4.4-1.9,8.2-4.5,11.5-7.7c3.3-3.3,5.8-7.1,7.7-11.5c1.9-4.4,2.8-9.1,2.8-14v-54h35.9
		v54c0,8.3-1.3,16.2-4,23.7c-2.6,7.5-6.3,14.3-11.1,20.5c-4.8,6.2-10.5,11.4-17.1,15.9c-6.6,4.4-13.9,7.7-21.8,9.7V259.5z"/>
	<path class="st0" d="M1136.1,246.7c0,3-0.5,5.8-1.6,8.5c-1.1,2.6-2.6,4.9-4.5,6.8c-1.9,1.9-4.2,3.5-6.8,4.6
		c-2.6,1.1-5.4,1.7-8.4,1.7c-2.9,0-5.7-0.6-8.3-1.7s-4.9-2.7-6.9-4.6c-2-1.9-3.5-4.2-4.6-6.8c-1.1-2.6-1.7-5.5-1.7-8.5
		c0-2.9,0.6-5.7,1.7-8.3c1.1-2.6,2.7-4.9,4.6-6.8c2-1.9,4.3-3.5,6.9-4.6c2.6-1.1,5.4-1.7,8.3-1.7c3,0,5.8,0.6,8.4,1.7
		c2.6,1.1,4.9,2.7,6.8,4.6c1.9,1.9,3.4,4.2,4.5,6.8C1135.5,241,1136.1,243.8,1136.1,246.7z"/>
	<path class="st0" d="M1350.2,259.5h-35.9V131c0-2.5-0.5-4.9-1.4-7c-1-2.2-2.3-4.1-3.9-5.7c-1.6-1.6-3.5-2.9-5.7-3.8
		c-2.2-0.9-4.5-1.4-7-1.4c-2.5,0-4.9,0.5-7,1.4c-2.2,0.9-4.1,2.2-5.7,3.8c-1.6,1.6-2.9,3.5-3.8,5.7c-0.9,2.2-1.4,4.5-1.4,7v128.5
		h-36V131c0-2.5-0.5-4.9-1.4-7c-0.9-2.2-2.2-4.1-3.8-5.7c-1.6-1.6-3.5-2.9-5.7-3.8c-2.2-0.9-4.5-1.4-7-1.4c-2.5,0-4.9,0.5-7,1.4
		c-2.2,0.9-4.1,2.2-5.7,3.8c-1.6,1.6-2.9,3.5-3.8,5.7c-0.9,2.2-1.4,4.5-1.4,7v128.5h-36V131c0-7.4,1.4-14.5,4.2-21
		c2.8-6.6,6.7-12.3,11.6-17.2s10.6-8.7,17.2-11.5c6.6-2.8,13.6-4.2,21-4.2c6.7,0,13.1,1.2,19.3,3.6c6.2,2.4,11.8,5.8,16.7,10.4
		c4.9-4.5,10.5-8,16.6-10.4c6.1-2.4,12.6-3.6,19.3-3.6c7.4,0,14.5,1.4,21,4.2c6.6,2.8,12.3,6.7,17.2,11.5s8.7,10.6,11.6,17.2
		c2.8,6.6,4.2,13.6,4.2,21V259.5z"/>
	<path class="st0" d="M1424.8,259.5h-36v-180h36V259.5z"/>
	<path class="st0" d="M1500.7,259.5h-36v-180h36v90l67-90h40.9l-56.9,75.9l56.9,104.1h-40.9l-39.5-72.8l-27.5,36.8V259.5z"/>
	<path class="st0" d="M1773.7,259.5h-36v-36h-72.1v36h-35.9v-108c0-10,1.9-19.3,5.6-28.1c3.8-8.7,8.9-16.4,15.4-22.9
		c6.5-6.5,14.1-11.7,22.8-15.4c8.7-3.8,18.1-5.6,28.1-5.6c10,0,19.3,1.9,28.1,5.6c8.7,3.8,16.4,8.9,22.9,15.4
		c6.5,6.5,11.7,14.2,15.4,22.9c3.8,8.7,5.6,18.1,5.6,28.1V259.5z M1737.7,187.6v-36c0-4.9-0.9-9.6-2.8-14s-4.5-8.2-7.7-11.5
		c-3.3-3.3-7.1-5.8-11.5-7.7c-4.4-1.9-9.1-2.8-14-2.8c-4.9,0-9.6,0.9-14,2.8c-4.4,1.9-8.2,4.5-11.5,7.7c-3.3,3.3-5.8,7.1-7.7,11.5
		c-1.9,4.4-2.8,9.1-2.8,14v36H1737.7z"/>
</g>
</svg>
