<?xml version="1.0" encoding="UTF-8"?>
<svg xmlns="http://www.w3.org/2000/svg" version="1.1" viewBox="0 0 24 24">
  <defs>
    <style>
      .cls-1 {
        fill: #fff;
      }
    </style>
  </defs>
  <!-- Generator: Adobe Illustrator 28.7.1, SVG Export Plug-In . SVG Version: 1.2.0 Build 142)  -->
  <g>
    <g id="Calque_1">
      <path class="cls-1" d="M21.2,12c0-2.5,0-5,0-7.5,0-1.3-.5-1.8-1.7-1.8-5,0-10,0-15.1,0-1.2,0-1.7.5-1.7,1.7,0,5,0,10,0,15.1,0,1.1.5,1.7,1.7,1.7,5,0,10.1,0,15.1,0,1.2,0,1.7-.5,1.7-1.7,0-2.5,0-5,0-7.5h0ZM8.8,18.1h-2.5v-7.9h2.5v7.9ZM7.6,9c-.9,0-1.6-.7-1.6-1.5,0-.9.7-1.6,1.6-1.6.9,0,1.6.7,1.6,1.6,0,.9-.7,1.6-1.6,1.6h0ZM18,17.3c0,.6-.2.8-.8.8-1.8.1-1.9.1-1.9-1.7,0-.8,0-1.6,0-2.4,0-.9-.6-1.5-1.4-1.5-.8,0-1.3.6-1.3,1.5,0,1.1,0,2.2,0,3.2,0,.6-.2.9-.9.9-1.8,0-1.8,0-1.8-1.7,0-1.8,0-3.5,0-5.3,0-.7.2-1.1,1-1,.6,0,1.5-.4,1.8.7.2-.1.3-.2.5-.3,2.1-1.4,4.6-.3,4.8,2.2,0,1.5,0,3.1,0,4.6h0Z"/>
    </g>
  </g>
</svg>