<?xml version="1.0" encoding="UTF-8"?>
<svg xmlns="http://www.w3.org/2000/svg" version="1.1" viewBox="0 0 24 24">
  <defs>
    <style>
      .cls-1 {
        fill: #606060;
      }
    </style>
  </defs>
  <!-- Generator: Adobe Illustrator 28.7.1, SVG Export Plug-In . SVG Version: 1.2.0 Build 142)  -->
  <g>
    <g id="Calque_1">
      <path class="cls-1" d="M10.5,13.1c-.5,0-.9.1-1.3.2-1.2.3-2,1.4-1.9,2.7.1,1.2,1,2.1,2.2,2.3,1.2.1,2.4-.6,2.7-1.9.1-.5.1-.9.1-1.4,0-3.6,0-7.2,0-10.7v-1.3h3.1c.3,2.3,1.6,3.8,4.1,4.1v3c-1.5-.4-2.8-.8-4.3-1.2,0,.9,0,1.9,0,3,0,1.5,0,3,0,4.5-.2,2.9-2.5,4.9-5.3,4.9-2.8,0-5-2.1-5.3-4.8-.3-2.8,1.6-5.3,4.2-5.8,1.6-.3,1.7-.2,1.7,1.4,0,.4,0,.8,0,1.2h0Z"/>
    </g>
  </g>
</svg>